<?xml version="1.0" standalone="no"?>
<!DOCTYPE svg PUBLIC "-//W3C//DTD SVG 20010904//EN"
 "http://www.w3.org/TR/2001/REC-SVG-20010904/DTD/svg10.dtd">
<svg version="1.0" xmlns="http://www.w3.org/2000/svg"
 width="560.000000pt" height="560.000000pt" viewBox="0 0 560.000000 560.000000"
 preserveAspectRatio="xMidYMid meet">
<metadata>
Created by potrace 1.14, written by Peter Selinger 2001-2017
</metadata>
<g transform="translate(0.000000,560.000000) scale(0.100000,-0.100000)"
fill="#000000" stroke="none">
<path d="M3258 5395 c-2 -2 -23 -6 -48 -9 -25 -3 -73 -13 -105 -22 -33 -8 -67
-17 -75 -19 -99 -22 -370 -151 -502 -238 -183 -123 -419 -342 -614 -572 -68
-80 -191 -247 -205 -279 -7 -14 -16 -26 -21 -26 -4 0 -8 -5 -8 -10 0 -6 -11
-28 -25 -50 -25 -39 -66 -137 -100 -235 -17 -50 -22 -68 -31 -115 -3 -14 -9
-41 -13 -60 -16 -67 -20 -261 -8 -364 5 -51 3 -64 -21 -110 -23 -44 -27 -63
-27 -136 0 -74 5 -94 34 -160 42 -95 46 -115 46 -222 0 -70 3 -86 15 -86 14 1
85 -8 141 -17 14 -3 55 -14 90 -25 35 -10 67 -19 72 -19 4 -1 29 -12 55 -25
43 -22 115 -46 183 -62 13 -3 75 -7 138 -8 109 -3 222 11 299 35 18 6 39 12
45 13 7 1 17 4 22 7 6 4 28 12 50 19 22 7 54 18 70 25 36 15 68 28 75 29 3 1
12 6 20 11 28 18 115 58 123 57 4 -1 7 2 7 7 0 5 8 11 18 15 30 10 201 122
222 145 3 3 25 22 50 41 66 50 101 82 234 216 184 184 288 308 399 474 32 47
61 90 66 96 20 25 118 253 121 279 0 3 0 6 1 8 1 4 8 31 24 92 28 110 38 284
23 423 -6 55 -4 68 20 115 22 43 27 65 27 132 0 71 -5 91 -39 175 -37 89 -40
102 -40 196 -1 100 -1 100 -26 101 -51 1 -123 14 -193 34 -40 11 -76 21 -82
23 -5 1 -28 10 -50 20 -86 38 -170 65 -225 73 -32 4 -229 11 -232 8z"/>
<path d="M72 2257 c-29 -29 -52 -56 -52 -60 0 -3 25 -32 56 -63 l57 -56 60 61
59 61 -55 55 c-30 30 -59 55 -64 55 -5 0 -32 -24 -61 -53z"/>
<path d="M671 2203 l-101 -108 5 -290 c3 -159 7 -404 10 -543 2 -139 7 -262
10 -272 7 -23 32 -29 63 -16 12 5 91 100 174 210 181 240 162 214 192 251 l25
30 2 -35 c0 -19 2 -55 4 -80 2 -25 7 -90 10 -145 4 -55 8 -109 10 -120 1 -11
3 -39 4 -63 2 -83 55 -70 142 35 35 43 68 83 74 89 5 7 21 26 35 44 14 18 30
37 35 44 6 6 41 49 80 96 38 47 75 91 82 98 7 7 17 21 22 30 13 24 18 15 25
-48 10 -87 16 -111 45 -180 54 -130 158 -219 286 -248 60 -13 257 -15 302 -3
47 13 99 59 130 116 22 42 61 168 68 226 l4 32 -32 -30 c-66 -62 -109 -74
-268 -74 -163 0 -183 3 -239 32 -71 37 -103 92 -115 197 -3 20 -7 55 -11 77
-9 62 -12 86 -19 150 -4 33 -9 70 -10 83 -9 66 -71 97 -137 69 -20 -8 -70 -50
-111 -93 -158 -164 -202 -210 -217 -221 -14 -11 -16 5 -15 150 1 157 -5 211
-24 230 -21 21 -79 25 -118 7 -43 -20 -63 -41 -154 -160 -35 -46 -70 -91 -77
-98 -7 -8 -25 -30 -40 -50 -15 -21 -36 -47 -48 -60 l-21 -23 3 113 c8 314 15
549 18 601 2 31 2 57 1 57 -1 0 -48 -48 -104 -107z"/>
<path d="M4420 2095 c0 -5 -44 -55 -96 -110 l-95 -100 4 -425 c3 -234 8 -433
12 -444 10 -24 59 -44 93 -38 25 4 144 119 405 391 38 39 72 69 76 67 4 -3 8
-22 9 -44 9 -155 77 -284 187 -355 63 -41 122 -58 227 -64 133 -8 177 5 231
68 23 27 42 52 42 56 0 5 3 13 7 19 14 21 50 145 49 169 0 2 4 18 9 35 10 36
6 37 -23 7 -30 -31 -85 -63 -123 -71 -52 -11 -237 -9 -279 4 -86 25 -150 89
-160 160 -6 47 -19 189 -30 325 -5 64 -15 93 -41 109 -61 41 -118 8 -291 -166
-78 -79 -160 -161 -182 -182 l-41 -40 4 105 c3 57 8 187 11 289 4 101 8 192
10 200 2 9 -1 23 -6 31 -5 8 -9 10 -9 4z"/>
<path d="M165 1911 c-108 -82 -116 -90 -116 -108 6 -159 7 -721 2 -760 -10
-70 -3 -77 44 -52 66 35 118 94 133 149 6 23 8 811 2 814 -3 2 -32 -18 -65
-43z"/>
<path d="M3040 1821 c-143 -57 -308 -183 -350 -267 -8 -16 -19 -36 -26 -44
-11 -14 -67 -161 -64 -168 1 -1 -2 -21 -5 -45 -27 -184 7 -289 102 -316 48
-14 151 -6 224 18 113 36 256 145 315 239 l21 34 44 -87 c43 -87 95 -145 149
-167 14 -6 34 -14 45 -19 74 -31 309 -38 366 -11 70 34 133 138 153 252 3 14
5 25 6 25 1 0 3 9 5 19 2 11 7 31 10 45 l6 25 -22 -19 c-13 -11 -30 -26 -38
-34 -43 -39 -99 -52 -229 -52 -162 0 -194 8 -260 57 -56 43 -61 70 -62 314 -1
121 -4 220 -7 220 -2 0 -37 -34 -77 -75 l-72 -76 -65 63 c-111 107 -95 100
-169 69z m178 -234 c-25 -48 -99 -135 -162 -192 -113 -100 -207 -143 -242
-108 -60 60 128 230 341 308 68 25 80 23 63 -8z"/>
<path d="M815 520 c-3 -5 -5 -74 -4 -155 1 -117 4 -148 16 -152 22 -8 25 1 27
72 1 59 4 69 27 86 22 16 29 16 44 5 14 -10 18 -28 19 -86 1 -52 5 -75 15 -78
22 -7 28 15 26 96 -2 65 -6 79 -25 94 -27 22 -37 22 -74 3 -15 -8 -29 -15 -30
-15 -1 0 -2 30 -2 67 0 55 -3 67 -17 69 -9 1 -19 -1 -22 -6z"/>
<path d="M2030 370 c0 -153 1 -159 20 -157 19 1 20 8 20 157 0 149 -1 156 -20
157 -19 2 -20 -4 -20 -157z"/>
<path d="M3275 504 c-26 -28 -25 -66 1 -95 12 -14 11 -19 -16 -43 -63 -56 -58
-115 12 -149 33 -16 43 -17 75 -7 21 7 46 19 56 28 16 14 19 13 40 -6 23 -21
57 -30 57 -14 0 4 -13 20 -28 37 -27 28 -27 30 -9 48 15 15 16 21 6 33 -10 13
-14 13 -29 -1 -21 -19 -39 -13 -63 21 -16 22 -17 26 -3 40 42 41 44 85 7 116
-33 26 -77 23 -106 -8z m89 -29 c12 -33 -32 -78 -51 -52 -18 22 -22 44 -10 56
16 16 54 14 61 -4z m-2 -159 c27 -33 27 -33 8 -51 -26 -23 -74 -23 -99 0 -19
16 -19 20 -6 45 26 50 59 52 97 6z"/>
<path d="M3806 515 c-13 -10 -19 -28 -20 -59 0 -37 -4 -46 -18 -46 -11 0 -18
-8 -18 -20 0 -13 7 -20 18 -20 16 0 18 -9 18 -77 0 -71 2 -78 19 -78 18 0 20
7 20 78 0 54 4 77 13 78 6 1 17 3 22 4 6 1 14 3 18 4 5 0 9 8 9 16 0 10 -10
15 -28 15 -29 0 -38 17 -31 58 4 19 10 23 28 19 24 -4 34 8 27 31 -6 16 -53
15 -77 -3z"/>
<path d="M4541 488 c-7 -18 -4 -25 13 -35 14 -8 25 -8 33 -1 18 15 16 45 -3
52 -26 10 -34 7 -43 -16z"/>
<path d="M2570 440 c0 -20 -5 -30 -15 -30 -8 0 -15 -4 -15 -10 0 -5 0 -13 0
-17 0 -5 6 -8 13 -8 8 0 14 -25 17 -80 4 -66 8 -81 23 -83 15 -3 17 7 17 78 0
73 2 80 20 80 13 0 20 7 20 20 0 13 -7 20 -20 20 -16 0 -20 7 -20 30 0 23 -4
30 -20 30 -16 0 -20 -7 -20 -30z"/>
<path d="M4741 458 c4 -34 -2 -50 -16 -44 -11 4 -15 -2 -15 -20 0 -14 4 -23 9
-19 17 10 25 -17 25 -88 1 -58 4 -71 18 -73 22 -3 25 9 23 89 -2 66 1 72 35
69 3 0 7 8 7 19 1 13 -5 19 -18 19 -10 0 -20 5 -20 10 -1 6 -3 15 -4 20 -1 6
-3 15 -4 20 0 6 -10 10 -21 10 -12 0 -20 -6 -19 -12z"/>
<path d="M599 408 c-54 -22 -74 -94 -42 -148 36 -61 141 -69 150 -12 3 20 -17
25 -33 9 -28 -28 -97 18 -92 61 3 30 44 64 68 58 8 -3 24 -7 36 -10 16 -5 20
-2 19 14 -1 11 -4 22 -7 26 -12 11 -73 12 -99 2z"/>
<path d="M1148 397 c-58 -51 -61 -110 -7 -159 76 -70 191 -2 169 99 -5 19 -10
35 -12 36 -1 1 -13 11 -25 21 -34 28 -94 29 -125 3z m113 -49 c13 -16 15 -29
8 -52 -5 -17 -9 -32 -9 -33 0 -1 -16 -5 -36 -9 -71 -13 -106 61 -51 109 25 22
65 15 88 -15z"/>
<path d="M1485 411 c-36 -16 -58 -50 -61 -94 -3 -62 40 -107 103 -107 36 0 52
11 58 39 3 18 1 21 -13 16 -43 -19 -73 -17 -92 5 -28 32 -25 65 7 90 26 20 43
21 87 4 11 -4 14 0 11 16 -2 13 -6 25 -8 27 -10 9 -73 12 -92 4z"/>
<path d="M1749 405 c-74 -40 -78 -137 -9 -178 55 -33 125 -13 152 44 41 84
-61 180 -143 134z m77 -38 c59 -20 37 -117 -26 -117 -31 0 -70 30 -70 53 0 30
13 55 33 64 23 11 30 11 63 0z"/>
<path d="M2251 403 c-25 -17 -51 -70 -47 -94 15 -89 88 -127 150 -78 26 20 27
20 24 3 -2 -13 3 -19 17 -19 18 0 19 8 21 98 l2 97 -25 0 c-19 0 -24 -4 -19
-16 6 -15 3 -14 -21 1 -37 24 -75 27 -102 8z m116 -51 c49 -66 -52 -144 -104
-81 -26 32 -12 86 27 102 22 9 62 -2 77 -21z"/>
<path d="M2812 407 c-31 -18 -59 -62 -56 -90 1 -12 3 -28 3 -35 1 -8 14 -27
30 -43 21 -21 39 -29 65 -29 41 0 83 17 90 37 8 21 -16 25 -54 9 -26 -10 -40
-11 -55 -3 -23 12 -45 39 -39 48 2 3 38 5 80 5 55 -1 78 2 81 11 7 19 -14 66
-36 80 -31 19 -84 24 -109 10z m90 -46 c16 -18 14 -19 -33 -23 -56 -3 -77 8
-51 28 25 19 65 17 84 -5z"/>
<path d="M4066 396 c-13 -18 -15 -19 -15 -3 -1 10 -9 17 -21 17 -19 0 -20 -7
-20 -99 0 -94 1 -100 20 -98 18 1 20 8 20 64 0 50 4 67 20 83 12 12 25 18 30
15 5 -3 14 4 20 15 12 23 13 22 -17 25 -13 1 -28 -6 -37 -19z"/>
<path d="M4379 412 c0 -4 -2 -36 -3 -72 -2 -76 -9 -90 -40 -90 -37 0 -49 25
-49 95 0 60 -1 65 -21 65 -20 0 -22 -5 -21 -70 2 -102 23 -130 95 -130 54 1
77 40 78 131 1 58 -2 68 -19 72 -10 3 -19 2 -20 -1z"/>
<path d="M4948 398 c-34 -34 -17 -74 39 -97 34 -14 50 -39 30 -47 -7 -2 -29
-3 -48 -2 -42 4 -48 -22 -8 -36 37 -13 73 -1 89 29 19 35 1 70 -46 90 -43 18
-41 41 4 38 38 -3 51 13 26 32 -25 18 -64 15 -86 -7z"/>
<path d="M4550 311 c0 -94 1 -100 20 -98 19 1 20 8 20 99 0 91 -1 98 -20 98
-19 0 -20 -7 -20 -99z"/>
</g>
</svg>
