<svg width="37" height="30" viewBox="0 0 37 30" fill="none" xmlns="http://www.w3.org/2000/svg">
<path d="M0.0600004 19.23C0.0600004 15.5633 0.976667 12.08 2.81 8.77999C4.71667 5.48 7.21 2.73 10.29 0.529995L15.57 4.70999C13.7367 5.81 12.0133 7.35 10.4 9.33C8.86 11.31 7.94333 13.2167 7.65 15.05C7.94333 14.9033 8.56667 14.83 9.52 14.83C11.3533 14.83 12.8933 15.49 14.14 16.81C15.3867 18.13 16.01 19.78 16.01 21.76C16.01 23.8133 15.2767 25.5733 13.81 27.04C12.3433 28.5067 10.5833 29.24 8.53 29.24C6.18333 29.24 4.16667 28.36 2.48 26.6C0.866667 24.7667 0.0600004 22.31 0.0600004 19.23ZM20.41 19.23C20.41 15.5633 21.3267 12.08 23.16 8.77999C25.0667 5.48 27.56 2.73 30.64 0.529995L35.92 4.70999C34.0867 5.81 32.3633 7.35 30.75 9.33C29.21 11.31 28.2933 13.2167 28 15.05C28.2933 14.9033 28.9167 14.83 29.87 14.83C31.7033 14.83 33.2433 15.49 34.49 16.81C35.7367 18.13 36.36 19.78 36.36 21.76C36.36 23.8133 35.6267 25.5733 34.16 27.04C32.6933 28.5067 30.9333 29.24 28.88 29.24C26.5333 29.24 24.5167 28.36 22.83 26.6C21.2167 24.7667 20.41 22.31 20.41 19.23Z" fill="#9F6D36"/>
</svg>
